<mxfile host="65bd71144e">
    <diagram id="zzLPgLQS9r62cfFg3sBX" name="Page-1">
        <mxGraphModel dx="1151" dy="158" grid="1" gridSize="10" guides="1" tooltips="1" connect="1" arrows="1" fold="1" page="1" pageScale="1" pageWidth="850" pageHeight="1100" math="0" shadow="0">
            <root>
                <mxCell id="0"/>
                <mxCell id="1" parent="0"/>
                <mxCell id="2" value="Circuit Number" style="rounded=1;whiteSpace=wrap;html=1;" vertex="1" parent="1">
                    <mxGeometry x="-60" y="130" width="120" height="60" as="geometry"/>
                </mxCell>
                <mxCell id="3" value="outbound&lt;br&gt;(Same as inbound)" style="rounded=1;whiteSpace=wrap;html=1;" vertex="1" parent="1">
                    <mxGeometry x="220" y="220" width="120" height="60" as="geometry"/>
                </mxCell>
                <mxCell id="4" value="inbound" style="rounded=1;whiteSpace=wrap;html=1;" vertex="1" parent="1">
                    <mxGeometry x="220" y="70" width="120" height="60" as="geometry"/>
                </mxCell>
                <mxCell id="5" value="" style="endArrow=none;dashed=1;html=1;exitX=1;exitY=0.5;exitDx=0;exitDy=0;" edge="1" parent="1" source="2" target="3">
                    <mxGeometry width="50" height="50" relative="1" as="geometry">
                        <mxPoint x="190" y="250" as="sourcePoint"/>
                        <mxPoint x="240" y="200" as="targetPoint"/>
                    </mxGeometry>
                </mxCell>
                <mxCell id="6" value="" style="endArrow=none;dashed=1;html=1;exitX=1;exitY=0.5;exitDx=0;exitDy=0;entryX=0;entryY=0.5;entryDx=0;entryDy=0;" edge="1" parent="1" source="2" target="4">
                    <mxGeometry width="50" height="50" relative="1" as="geometry">
                        <mxPoint x="70" y="170" as="sourcePoint"/>
                        <mxPoint x="230" y="235.4545454545455" as="targetPoint"/>
                    </mxGeometry>
                </mxCell>
                <mxCell id="7" value="" style="shape=table;html=1;whiteSpace=wrap;startSize=0;container=1;collapsible=0;childLayout=tableLayout;" vertex="1" parent="1">
                    <mxGeometry x="510" y="50" width="180" height="120" as="geometry"/>
                </mxCell>
                <mxCell id="8" value="" style="shape=tableRow;horizontal=0;startSize=0;swimlaneHead=0;swimlaneBody=0;top=0;left=0;bottom=0;right=0;collapsible=0;dropTarget=0;fillColor=none;points=[[0,0.5],[1,0.5]];portConstraint=eastwest;" vertex="1" parent="7">
                    <mxGeometry width="180" height="40" as="geometry"/>
                </mxCell>
                <mxCell id="9" value="id" style="shape=partialRectangle;html=1;whiteSpace=wrap;connectable=0;fillColor=none;top=0;left=0;bottom=0;right=0;overflow=hidden;" vertex="1" parent="8">
                    <mxGeometry width="60" height="40" as="geometry">
                        <mxRectangle width="60" height="40" as="alternateBounds"/>
                    </mxGeometry>
                </mxCell>
                <mxCell id="10" value="take&lt;span style=&quot;white-space: pre;&quot;&gt;&#9;&lt;/span&gt;" style="shape=partialRectangle;html=1;whiteSpace=wrap;connectable=0;fillColor=none;top=0;left=0;bottom=0;right=0;overflow=hidden;" vertex="1" parent="8">
                    <mxGeometry x="60" width="60" height="40" as="geometry">
                        <mxRectangle width="60" height="40" as="alternateBounds"/>
                    </mxGeometry>
                </mxCell>
                <mxCell id="11" value="number" style="shape=partialRectangle;html=1;whiteSpace=wrap;connectable=0;fillColor=none;top=0;left=0;bottom=0;right=0;overflow=hidden;" vertex="1" parent="8">
                    <mxGeometry x="120" width="60" height="40" as="geometry">
                        <mxRectangle width="60" height="40" as="alternateBounds"/>
                    </mxGeometry>
                </mxCell>
                <mxCell id="12" value="" style="shape=tableRow;horizontal=0;startSize=0;swimlaneHead=0;swimlaneBody=0;top=0;left=0;bottom=0;right=0;collapsible=0;dropTarget=0;fillColor=none;points=[[0,0.5],[1,0.5]];portConstraint=eastwest;" vertex="1" parent="7">
                    <mxGeometry y="40" width="180" height="40" as="geometry"/>
                </mxCell>
                <mxCell id="13" value="1" style="shape=partialRectangle;html=1;whiteSpace=wrap;connectable=0;fillColor=none;top=0;left=0;bottom=0;right=0;overflow=hidden;" vertex="1" parent="12">
                    <mxGeometry width="60" height="40" as="geometry">
                        <mxRectangle width="60" height="40" as="alternateBounds"/>
                    </mxGeometry>
                </mxCell>
                <mxCell id="14" value="boolean" style="shape=partialRectangle;html=1;whiteSpace=wrap;connectable=0;fillColor=none;top=0;left=0;bottom=0;right=0;overflow=hidden;" vertex="1" parent="12">
                    <mxGeometry x="60" width="60" height="40" as="geometry">
                        <mxRectangle width="60" height="40" as="alternateBounds"/>
                    </mxGeometry>
                </mxCell>
                <mxCell id="15" value="string&lt;span style=&quot;white-space: pre;&quot;&gt;&#9;&lt;/span&gt;" style="shape=partialRectangle;html=1;whiteSpace=wrap;connectable=0;fillColor=none;top=0;left=0;bottom=0;right=0;overflow=hidden;" vertex="1" parent="12">
                    <mxGeometry x="120" width="60" height="40" as="geometry">
                        <mxRectangle width="60" height="40" as="alternateBounds"/>
                    </mxGeometry>
                </mxCell>
                <mxCell id="16" value="" style="shape=tableRow;horizontal=0;startSize=0;swimlaneHead=0;swimlaneBody=0;top=0;left=0;bottom=0;right=0;collapsible=0;dropTarget=0;fillColor=none;points=[[0,0.5],[1,0.5]];portConstraint=eastwest;" vertex="1" parent="7">
                    <mxGeometry y="80" width="180" height="40" as="geometry"/>
                </mxCell>
                <mxCell id="17" value="n" style="shape=partialRectangle;html=1;whiteSpace=wrap;connectable=0;fillColor=none;top=0;left=0;bottom=0;right=0;overflow=hidden;" vertex="1" parent="16">
                    <mxGeometry width="60" height="40" as="geometry">
                        <mxRectangle width="60" height="40" as="alternateBounds"/>
                    </mxGeometry>
                </mxCell>
                <mxCell id="18" value="false" style="shape=partialRectangle;html=1;whiteSpace=wrap;connectable=0;fillColor=none;top=0;left=0;bottom=0;right=0;overflow=hidden;" vertex="1" parent="16">
                    <mxGeometry x="60" width="60" height="40" as="geometry">
                        <mxRectangle width="60" height="40" as="alternateBounds"/>
                    </mxGeometry>
                </mxCell>
                <mxCell id="19" value="8-digits" style="shape=partialRectangle;html=1;whiteSpace=wrap;connectable=0;fillColor=none;top=0;left=0;bottom=0;right=0;overflow=hidden;pointerEvents=1;" vertex="1" parent="16">
                    <mxGeometry x="120" width="60" height="40" as="geometry">
                        <mxRectangle width="60" height="40" as="alternateBounds"/>
                    </mxGeometry>
                </mxCell>
                <mxCell id="20" value="Account" style="rounded=1;whiteSpace=wrap;html=1;" vertex="1" parent="1">
                    <mxGeometry x="460" y="410" width="120" height="60" as="geometry"/>
                </mxCell>
                <mxCell id="21" value="" style="shape=table;html=1;whiteSpace=wrap;startSize=0;container=1;collapsible=0;childLayout=tableLayout;" vertex="1" parent="1">
                    <mxGeometry x="680" y="260" width="180" height="120" as="geometry"/>
                </mxCell>
                <mxCell id="22" value="" style="shape=tableRow;horizontal=0;startSize=0;swimlaneHead=0;swimlaneBody=0;top=0;left=0;bottom=0;right=0;collapsible=0;dropTarget=0;fillColor=none;points=[[0,0.5],[1,0.5]];portConstraint=eastwest;" vertex="1" parent="21">
                    <mxGeometry width="180" height="40" as="geometry"/>
                </mxCell>
                <mxCell id="23" value="id&lt;span style=&quot;white-space: pre;&quot;&gt;&#9;&lt;/span&gt;" style="shape=partialRectangle;html=1;whiteSpace=wrap;connectable=0;fillColor=none;top=0;left=0;bottom=0;right=0;overflow=hidden;" vertex="1" parent="22">
                    <mxGeometry width="60" height="40" as="geometry">
                        <mxRectangle width="60" height="40" as="alternateBounds"/>
                    </mxGeometry>
                </mxCell>
                <mxCell id="24" value="acc_id" style="shape=partialRectangle;html=1;whiteSpace=wrap;connectable=0;fillColor=none;top=0;left=0;bottom=0;right=0;overflow=hidden;" vertex="1" parent="22">
                    <mxGeometry x="60" width="60" height="40" as="geometry">
                        <mxRectangle width="60" height="40" as="alternateBounds"/>
                    </mxGeometry>
                </mxCell>
                <mxCell id="25" value="line_id" style="shape=partialRectangle;html=1;whiteSpace=wrap;connectable=0;fillColor=none;top=0;left=0;bottom=0;right=0;overflow=hidden;" vertex="1" parent="22">
                    <mxGeometry x="120" width="60" height="40" as="geometry">
                        <mxRectangle width="60" height="40" as="alternateBounds"/>
                    </mxGeometry>
                </mxCell>
                <mxCell id="26" value="" style="shape=tableRow;horizontal=0;startSize=0;swimlaneHead=0;swimlaneBody=0;top=0;left=0;bottom=0;right=0;collapsible=0;dropTarget=0;fillColor=none;points=[[0,0.5],[1,0.5]];portConstraint=eastwest;" vertex="1" parent="21">
                    <mxGeometry y="40" width="180" height="40" as="geometry"/>
                </mxCell>
                <mxCell id="27" value="1" style="shape=partialRectangle;html=1;whiteSpace=wrap;connectable=0;fillColor=none;top=0;left=0;bottom=0;right=0;overflow=hidden;" vertex="1" parent="26">
                    <mxGeometry width="60" height="40" as="geometry">
                        <mxRectangle width="60" height="40" as="alternateBounds"/>
                    </mxGeometry>
                </mxCell>
                <mxCell id="28" value="foregn_key" style="shape=partialRectangle;html=1;whiteSpace=wrap;connectable=0;fillColor=none;top=0;left=0;bottom=0;right=0;overflow=hidden;" vertex="1" parent="26">
                    <mxGeometry x="60" width="60" height="40" as="geometry">
                        <mxRectangle width="60" height="40" as="alternateBounds"/>
                    </mxGeometry>
                </mxCell>
                <mxCell id="29" value="explicet_id" style="shape=partialRectangle;html=1;whiteSpace=wrap;connectable=0;fillColor=none;top=0;left=0;bottom=0;right=0;overflow=hidden;" vertex="1" parent="26">
                    <mxGeometry x="120" width="60" height="40" as="geometry">
                        <mxRectangle width="60" height="40" as="alternateBounds"/>
                    </mxGeometry>
                </mxCell>
                <mxCell id="30" value="" style="shape=tableRow;horizontal=0;startSize=0;swimlaneHead=0;swimlaneBody=0;top=0;left=0;bottom=0;right=0;collapsible=0;dropTarget=0;fillColor=none;points=[[0,0.5],[1,0.5]];portConstraint=eastwest;" vertex="1" parent="21">
                    <mxGeometry y="80" width="180" height="40" as="geometry"/>
                </mxCell>
                <mxCell id="31" value="n" style="shape=partialRectangle;html=1;whiteSpace=wrap;connectable=0;fillColor=none;top=0;left=0;bottom=0;right=0;overflow=hidden;" vertex="1" parent="30">
                    <mxGeometry width="60" height="40" as="geometry">
                        <mxRectangle width="60" height="40" as="alternateBounds"/>
                    </mxGeometry>
                </mxCell>
                <mxCell id="32" value="" style="shape=partialRectangle;html=1;whiteSpace=wrap;connectable=0;fillColor=none;top=0;left=0;bottom=0;right=0;overflow=hidden;" vertex="1" parent="30">
                    <mxGeometry x="60" width="60" height="40" as="geometry">
                        <mxRectangle width="60" height="40" as="alternateBounds"/>
                    </mxGeometry>
                </mxCell>
                <mxCell id="33" value="" style="shape=partialRectangle;html=1;whiteSpace=wrap;connectable=0;fillColor=none;top=0;left=0;bottom=0;right=0;overflow=hidden;pointerEvents=1;" vertex="1" parent="30">
                    <mxGeometry x="120" width="60" height="40" as="geometry">
                        <mxRectangle width="60" height="40" as="alternateBounds"/>
                    </mxGeometry>
                </mxCell>
                <mxCell id="35" value="Structure" style="endArrow=none;dashed=1;html=1;exitX=1;exitY=0.5;exitDx=0;exitDy=0;entryX=-0.001;entryY=0.773;entryDx=0;entryDy=0;entryPerimeter=0;" edge="1" parent="1" source="4" target="8">
                    <mxGeometry width="50" height="50" relative="1" as="geometry">
                        <mxPoint x="390" y="140" as="sourcePoint"/>
                        <mxPoint x="550" y="80" as="targetPoint"/>
                    </mxGeometry>
                </mxCell>
                <mxCell id="36" value="based on the account" style="endArrow=none;dashed=1;html=1;exitX=1;exitY=0.5;exitDx=0;exitDy=0;" edge="1" parent="1" source="20" target="30">
                    <mxGeometry width="50" height="50" relative="1" as="geometry">
                        <mxPoint x="430.0000000000001" y="410" as="sourcePoint"/>
                        <mxPoint x="590" y="475.4545454545455" as="targetPoint"/>
                    </mxGeometry>
                </mxCell>
                <mxCell id="37" value="" style="endArrow=none;dashed=1;html=1;entryX=1;entryY=0.5;entryDx=0;entryDy=0;exitX=0.797;exitY=0.043;exitDx=0;exitDy=0;exitPerimeter=0;" edge="1" parent="1" source="22" target="12">
                    <mxGeometry width="50" height="50" relative="1" as="geometry">
                        <mxPoint x="500" y="240" as="sourcePoint"/>
                        <mxPoint x="550" y="190" as="targetPoint"/>
                    </mxGeometry>
                </mxCell>
                <mxCell id="38" value="Lines" style="text;html=1;align=center;verticalAlign=middle;resizable=0;points=[];autosize=1;strokeColor=none;fillColor=none;" vertex="1" parent="1">
                    <mxGeometry x="590" y="20" width="50" height="30" as="geometry"/>
                </mxCell>
                <mxCell id="39" value="Account_lines_relation" style="text;html=1;align=center;verticalAlign=middle;resizable=0;points=[];autosize=1;strokeColor=none;fillColor=none;" vertex="1" parent="1">
                    <mxGeometry x="690" y="220" width="140" height="30" as="geometry"/>
                </mxCell>
            </root>
        </mxGraphModel>
    </diagram>
</mxfile>